<?xml version="1.0" encoding="utf-8"?>
<!-- Generator: Adobe Illustrator 25.4.1, SVG Export Plug-In . SVG Version: 6.00 Build 0)  -->
<svg version="1.1" id="Capa_1" xmlns="http://www.w3.org/2000/svg" xmlns:xlink="http://www.w3.org/1999/xlink" x="0px" y="0px"
	 viewBox="0 0 602.1 245.9" enable-background="new 0 0 602.1 245.9" xml:space="preserve">
<g>
	<path fill="#FFFFFF" d="M19.3,229V14.7H9.6C8.5,14,8,13.3,8,12.7c0-0.5,0.5-1.1,1.6-1.8h44.7c1.1,0.7,1.6,1.3,1.6,1.8
		c0,0.6-0.5,1.2-1.6,1.9h-4.7v100.9h18.9V14.7h-6.2c-1.1-0.7-1.6-1.3-1.6-1.9s0.5-1.2,1.6-1.8h45.6c1.1,0.7,1.6,1.3,1.6,1.8
		c0,0.6-0.5,1.2-1.6,1.9h-8.8V229h8.8c0.5,0,0.9,0.2,1.3,0.5c0.4,0.3,0.6,0.8,0.6,1.3c0,0.6-0.2,1-0.6,1.3c-0.4,0.3-0.8,0.5-1.3,0.5
		H63.5c-0.5,0-0.9-0.2-1.3-0.5c-0.3-0.3-0.5-0.8-0.5-1.3c0-0.6,0.2-1,0.5-1.3c0.4-0.3,0.8-0.5,1.3-0.5h4.8V119H49.5v110h5.8
		c0.5,0,0.9,0.2,1.3,0.5c0.3,0.3,0.5,0.8,0.5,1.3c0,0.6-0.2,1-0.5,1.3c-0.3,0.3-0.8,0.5-1.2,0.5H9.6c-1.1-0.7-1.6-1.3-1.6-1.8
		c0-0.6,0.5-1.2,1.6-1.8H19.3z"/>
	<path fill="#FFFFFF" d="M155.7,14.1h16.3l26.3,215h6.6c1.1,0.7,1.6,1.3,1.6,1.8c0,0.6-0.5,1.2-1.6,1.8h-44.4
		c-0.5,0-0.9-0.2-1.2-0.5c-0.3-0.3-0.4-0.8-0.4-1.3c0-0.6,0.1-1,0.4-1.3s0.7-0.5,1.2-0.5h7.1l-3.8-42h-27.1l-3.1,23.7
		c-0.1,1.3-0.1,2.6-0.1,4c0,4.3,0.8,7.6,2.4,9.8c1.6,2.2,3.9,3.6,6.7,4.1l2.4,0.7c0.4,0.4,0.6,0.9,0.6,1.5s-0.2,1.1-0.5,1.4
		c-0.3,0.3-0.8,0.5-1.3,0.5h-25.2c-0.5,0-0.9-0.2-1.3-0.5c-0.3-0.3-0.5-0.8-0.5-1.4s0.1-1.1,0.4-1.5l1.8-0.6
		c2.9-0.4,5.1-1.7,6.6-3.8c2.4-3.4,4-9.1,5-17.1L155.7,14.1z M151.9,69.1l-14.7,114.1h25.9L151.9,69.1z"/>
	<path fill="#FFFFFF" d="M224.3,14.7h-8.7c-1.1-0.6-1.6-1.2-1.6-1.9c0-0.6,0.5-1.2,1.6-1.8h46.4c11.5,0,21.4,4.9,29.9,14.7
		c8.4,9.8,12.7,23.1,12.7,40.1c0,9.7-1.6,18.4-4.8,26c-3.2,7.6-8,13.8-14.4,18.7c-3.8,3-9.8,5.8-17.8,8.6c9,2.7,15.2,5.2,18.7,7.7
		c6,4.1,10.4,9.1,13.2,14.9c2.9,5.8,4.3,13.3,4.3,22.5V218c0,2.5,0.4,4.2,1.2,5.2c0.8,1,1.8,1.5,3.1,1.5c2,0,3.7-1.2,5.3-3.7
		c2.6-3.9,4.2-11,4.9-21.2c0.1-1.8,0.4-2.9,0.8-3.5s0.9-0.9,1.4-0.9c0.6,0,1.1,0.3,1.5,1c0.5,0.8,0.7,2.3,0.7,4.4
		c0,10.9-2.6,19.3-7.9,25.3c-5.2,5.9-11.8,8.9-19.8,8.9c-7.1,0-12.4-1.8-16-5.5s-5.4-8.8-5.4-15.5v-78c0-6.7-1.7-11.2-5-13.4
		c-2-1.3-6.5-1.9-13.8-1.9V229h7.2c0.8,0,1.4,0.2,1.8,0.6c0.4,0.4,0.7,0.8,0.7,1.3c0,0.5-0.2,0.9-0.7,1.3s-1.1,0.6-1.8,0.6h-46.4
		c-0.6,0-1.1-0.2-1.5-0.5c-0.4-0.3-0.6-0.8-0.6-1.3c0-0.6,0.2-1,0.6-1.3c0.4-0.3,0.9-0.5,1.5-0.5h8.7V14.7z M254.8,14.8v102h7.2
		c3.4,0,6.2-1.2,8.3-3.5c2.1-2.4,3.2-5.8,3.2-10.3V26.4c0-4.4-0.8-7.5-2.3-9.1c-1.6-1.7-4.6-2.5-9.2-2.5H254.8z"/>
	<path fill="#FFFFFF" d="M324.7,14.7h-7.5c-0.5,0-0.9-0.2-1.3-0.5c-0.3-0.3-0.5-0.8-0.5-1.3s0.2-1,0.5-1.3c0.3-0.3,0.8-0.5,1.3-0.5
		h47c0.5,0,0.9,0.2,1.3,0.5c0.3,0.3,0.5,0.8,0.5,1.3s-0.1,1-0.4,1.3c-0.3,0.3-0.7,0.5-1.3,0.5h-9L368.2,178l17.5-148.3
		c0.2-1.4,0.3-2.8,0.3-4.1c0-3.2-0.4-5.7-1.3-7.4c-0.9-1.7-2.2-2.7-3.8-3.1l-4.7-0.4c-0.6-0.4-0.9-1-0.9-1.8c0-0.6,0.5-1.2,1.6-1.9
		h22.3c0.5,0,0.9,0.1,1.2,0.4s0.4,0.7,0.4,1.2c0,0.5-0.1,0.9-0.4,1.2c-0.2,0.3-0.7,0.5-1.3,0.6c-2.4,0.3-4.2,1.3-5.5,3.1
		c-2.1,3.1-3.5,8.1-4.3,15.2L367,219.2c-0.9,7.7-1.5,11.8-1.9,12.5c-0.4,0.7-1.1,1-2.2,1h-14.1c-0.8,0-1.4-0.4-1.8-1.2
		c-0.4-0.8-1.1-6.4-2.2-17L324.7,14.7z"/>
	<path fill="#FFFFFF" d="M416.7,14.7h-9.6c-1-0.7-1.5-1.3-1.5-1.8c0-0.7,0.5-1.3,1.5-1.9H491v82.1c-0.6,1-1.1,1.5-1.7,1.5
		c-0.6,0-1-0.2-1.2-0.5c-0.2-0.3-0.4-1.7-0.5-4.2c-0.7-16.3-3.3-31.4-7.7-45.5c-4.4-14-8.7-22.9-12.9-26.6c-2.2-2-5.8-2.9-11-2.9
		h-9.2v103.7c5.6-0.6,10.2-3.5,13.7-8.8c4.7-7.2,7.1-18.2,7.1-33V65.1c0-0.5,0.2-0.9,0.5-1.3c0.3-0.3,0.8-0.5,1.3-0.5
		c0.5,0,0.9,0.2,1.2,0.5c0.3,0.3,0.4,0.8,0.4,1.3v109.6c0,0.5-0.1,0.9-0.4,1.3c-0.3,0.3-0.7,0.5-1.2,0.5c-0.5,0-0.9-0.2-1.3-0.5
		c-0.3-0.3-0.5-0.8-0.5-1.3V164c0-14.5-2.7-26.1-8-34.7c-3.1-4.9-6.4-7.4-9.9-7.4c-0.9,0-1.6,0.3-2.1,0.9c-0.6,0.7-0.9,1.8-0.9,3.2
		v102.8h4.7c4,0,8-1.5,11.9-4.5c3.9-3,7.6-8.2,11.1-15.6c3.4-7.4,6.1-15.5,8-24.3c3-14.2,4.6-25.2,4.6-33.2v-9.7
		c0.7-1.1,1.3-1.6,1.9-1.6s1.1,0.1,1.4,0.4c0.3,0.3,0.5,0.7,0.5,1.2v91.1h-83.8c-0.7,0-1.2-0.2-1.6-0.6c-0.4-0.4-0.6-0.8-0.6-1.3
		c0-0.6,0.2-1,0.6-1.3c0.4-0.3,0.9-0.5,1.6-0.5h9.4V14.7z"/>
	<path fill="#FFFFFF" d="M531,122.7L506.8,14.7h-5.9c-0.5,0-0.9-0.2-1.2-0.5c-0.3-0.3-0.4-0.8-0.4-1.3c0-0.7,0.1-1.1,0.4-1.4
		s0.7-0.4,1.2-0.4h47.9c1.1,0.7,1.6,1.2,1.6,1.7c0,0.7-0.5,1.3-1.6,2H537l22.9,100.6l17.2-78.3c0.7-2.9,1-5.6,1-8.2
		c0-3.7-0.6-6.7-1.8-9c-1.2-2.3-2.8-3.8-4.9-4.6l-4.9-0.6c-0.6-0.3-0.9-0.9-0.9-1.7c0-0.7,0.5-1.4,1.6-2h24c1.1,0,1.8,0.1,2.2,0.3
		l0.4,0.7c0,0.7-0.6,1.4-1.8,2.2c-4.9,2.8-8.3,8.5-10.2,16.9l-20.6,91.7V229h11.6c0.5,0,0.9,0.2,1.3,0.5c0.3,0.3,0.5,0.8,0.5,1.3
		c0,0.6-0.2,1-0.5,1.3c-0.3,0.3-0.8,0.5-1.3,0.5h-54.4c-0.5,0-0.9-0.2-1.2-0.5c-0.3-0.3-0.4-0.8-0.4-1.3c0-0.6,0.1-1,0.4-1.3
		s0.7-0.5,1.2-0.5H531V122.7z"/>
</g>
<g>
</g>
<g>
</g>
<g>
</g>
<g>
</g>
<g>
</g>
<g>
</g>
</svg>
